<mxfile host="app.diagrams.net" modified="2024-04-03T13:10:51.386Z" agent="Mozilla/5.0 (Windows NT 10.0; Win64; x64; rv:124.0) Gecko/20100101 Firefox/124.0" version="24.2.1" etag="TZXl839WokHOoApOZclq" type="github">
  <diagram name="Page-1" id="_w-PV1ET9OviGmJsY9E2">
    <mxGraphModel>
      <root>
        <mxCell id="0" />
        <mxCell id="1" parent="0" />
      </root>
    </mxGraphModel>
  </diagram>
</mxfile>
